<?xml version="1.0" encoding="UTF-8"?>
<svg width="12px" height="16px" viewBox="0 0 12 16" version="1.1" xmlns="http://www.w3.org/2000/svg" xmlns:xlink="http://www.w3.org/1999/xlink">
    <!-- Generator: Sketch 47.1 (45422) - http://www.bohemiancoding.com/sketch -->
    <title>icon-note-text</title>
    <desc>Created with Sketch.</desc>
    <defs></defs>
    <g id="Page-1" stroke="none" stroke-width="1" fill="none" fill-rule="evenodd">
        <g id="Artboard" transform="translate(-323.000000, -266.000000)">
            <g id="icon-note-text" transform="translate(319.000000, 264.000000)">
                <rect id="Rectangle-7" fill="#BFBFBF" opacity="0" x="0" y="0" width="20" height="20"></rect>
                <g id="file-text" transform="translate(5.000000, 3.500000)" stroke="#8A8C8D" stroke-width="1.25" stroke-linecap="round" stroke-linejoin="round">
                    <path d="M6.25,0 L1.25,0 C0.559644063,0 0,0.582029825 0,1.3 L0,11.7 C0,12.4179702 0.559644063,13 1.25,13 L8.75,13 C9.44035594,13 10,12.4179702 10,11.7 L10,3.9 L6.25,0 Z" id="Shape"></path>
                    <polyline id="Shape" points="6.25 0 6.25 3.9 10 3.9"></polyline>
                    <path d="M7.5,7.15 L2.5,7.15" id="Shape"></path>
                    <path d="M7.5,9.75 L2.5,9.75" id="Shape"></path>
                    <polyline id="Shape" points="3.75 4.55 3.125 4.55 2.5 4.55"></polyline>
                </g>
            </g>
        </g>
    </g>
</svg>