<?xml version="1.0" encoding="UTF-8"?>
<svg width="12px" height="16px" viewBox="0 0 12 16" version="1.1" xmlns="http://www.w3.org/2000/svg" xmlns:xlink="http://www.w3.org/1999/xlink">
    <!-- Generator: Sketch 47.1 (45422) - http://www.bohemiancoding.com/sketch -->
    <title>icon-note-code</title>
    <desc>Created with Sketch.</desc>
    <defs></defs>
    <g id="Page-1" stroke="none" stroke-width="1" fill="none" fill-rule="evenodd">
        <g id="Artboard" transform="translate(-344.000000, -267.000000)">
            <g id="icon-note-code" transform="translate(340.000000, 265.000000)">
                <rect id="Rectangle-7" fill="#BFBFBF" opacity="0" x="0" y="0" width="20" height="20"></rect>
                <g id="file-code" transform="translate(5.000000, 3.500000)">
                    <path d="M6.25,0 L1.25,0 C0.559644063,0 0,0.582029825 0,1.3 L0,11.7 C0,12.4179702 0.559644063,13 1.25,13 L8.75,13 C9.44035594,13 10,12.4179702 10,11.7 L10,3.9 L6.25,0 Z" id="Shape" stroke="#8A8C8D" stroke-width="1.25" stroke-linecap="round" stroke-linejoin="round"></path>
                    <polyline id="Shape" stroke="#8A8C8D" stroke-width="1.25" stroke-linecap="round" stroke-linejoin="round" points="6.25 0 6.25 3.9 10 3.9"></polyline>
                    <path d="M6.62135922,7.5 L5.34466019,8.60504202 L5.34466019,8.60504202 C5.17990298,8.747647 5.16194505,8.9968133 5.30455003,9.16157051 C5.31694041,9.17588561 5.3303451,9.1892903 5.34466019,9.20168067 L5.41240363,9.26031575 L5.41240363,9.26031575 C5.57137564,9.39791337 5.80726514,9.39791337 5.96623715,9.26031575 L7.63036872,7.81993296 L7.63036872,7.81993296 C7.80706281,7.66699605 7.82632182,7.39977733 7.67338492,7.22308324 C7.66009684,7.207731 7.64572097,7.19335512 7.63036872,7.18006704 L5.96623715,5.73968425 L5.96623715,5.73968425 C5.80726514,5.60208663 5.57137564,5.60208663 5.41240363,5.73968425 L5.34466019,5.79831933 L5.34466019,5.79831933 C5.17990298,5.94092431 5.16194505,6.19009061 5.30455003,6.35484782 C5.31694041,6.36916292 5.3303451,6.38256761 5.34466019,6.39495798 L6.62135922,7.5 Z" id="Shape" fill="#8A8C8D" fill-rule="nonzero"></path>
                    <path d="M2.36963128,7.81993296 L4.03376285,9.26031575 L4.03376285,9.26031575 C4.19273486,9.39791337 4.42862436,9.39791337 4.58759637,9.26031575 L4.65533981,9.20168067 L4.65533981,9.20168067 C4.82009702,9.05907569 4.83805495,8.80990939 4.69544997,8.64515218 C4.68305959,8.63083708 4.6696549,8.61743239 4.65533981,8.60504202 L3.37864078,7.5 L4.65533981,6.39495798 L4.65533981,6.39495798 C4.82009702,6.252353 4.83805495,6.0031867 4.69544997,5.83842949 C4.68305959,5.82411439 4.6696549,5.8107097 4.65533981,5.79831933 L4.58759637,5.73968425 L4.58759637,5.73968425 C4.42862436,5.60208663 4.19273486,5.60208663 4.03376285,5.73968425 L2.36963128,7.18006704 L2.36963128,7.18006704 C2.19293719,7.33300395 2.17367818,7.60022267 2.32661508,7.77691676 C2.33990316,7.792269 2.35427903,7.80664488 2.36963128,7.81993296 Z" id="Shape" fill="#8A8C8D" fill-rule="nonzero"></path>
                </g>
            </g>
        </g>
    </g>
</svg>